<svg width="79" height="79" viewBox="0 0 79 79" fill="none" xmlns="http://www.w3.org/2000/svg">
<path d="M65.5653 30.7243C65.7324 26.4196 62.0566 22.7771 57.3784 23.2738C54.2038 23.6049 51.6976 26.0884 51.1964 29.2342C50.6951 31.8833 51.8647 34.5324 53.7026 36.0225C54.0367 36.3537 54.3709 36.8504 54.2038 37.3471C53.7026 38.8372 52.8672 40.6585 50.528 41.8174C50.528 41.8174 46.8522 43.6387 43.1765 41.4863C43.1765 41.4863 43.0094 41.4863 43.0094 41.3207C42.174 40.6585 41.1715 39.665 40.6702 38.5061C40.6702 38.1749 40.6702 37.3471 40.6702 37.3471C40.8373 36.6848 40.8373 36.0225 40.6702 35.3603C40.3361 33.7046 38.9994 32.5456 37.3286 32.2145C34.6553 31.7178 32.3162 33.7046 32.1491 36.1881C32.1491 37.0159 32.3162 37.6782 32.6503 38.3405C32.6503 38.3405 33.987 41.3207 29.6429 43.4731C29.6429 43.4731 28.9746 43.8043 27.6379 43.6387C27.1367 43.6387 26.4683 43.6387 25.9671 43.8043C25.4658 43.9698 24.9646 43.8043 24.6304 43.3075C24.4634 43.142 24.4634 42.9764 24.2963 42.9764C23.2938 41.4863 22.9596 40.1617 22.9596 39.1683C22.9596 39.0028 22.9596 38.8372 23.1267 38.5061C23.4609 37.6782 23.628 36.6848 23.4609 35.6914C23.1267 33.7046 21.623 32.0489 19.618 31.7178C16.2764 31.0555 13.2689 33.7046 13.6031 37.0159C13.7702 39.0028 15.2739 40.824 17.2789 41.3207C17.9472 41.4863 18.6155 41.4863 19.2838 41.4863C19.618 41.4863 20.1193 41.4863 20.2863 41.8174C21.4559 42.8108 22.1242 43.9698 22.6255 44.7977C22.7926 45.2944 22.7926 45.7911 22.4584 46.1222C21.623 47.1156 21.2888 48.4402 21.2888 49.7647C21.2888 52.9105 23.795 55.7252 26.9696 55.8908C30.4783 56.2219 33.4857 53.5728 33.6528 50.0959C33.6528 48.7713 33.3187 47.6123 32.8174 46.6189C32.6503 46.4534 32.6503 46.1222 32.6503 45.9566C32.8174 44.4665 33.3187 41.983 35.6578 40.9896C35.992 40.9896 36.3261 40.824 36.6603 40.824H36.8274C37.3286 40.824 37.8299 40.6585 38.3311 40.4929C38.4982 40.4929 38.6653 40.4929 38.8323 40.4929C39.1665 40.4929 39.8348 40.824 40.169 41.1552C41.5056 42.1486 43.0094 44.1354 42.341 46.9501V47.1156C42.341 47.2812 42.341 47.4468 42.174 47.6123C42.174 47.7779 42.174 47.7779 42.174 47.9435V48.109C42.0069 51.586 45.0143 54.5662 48.5231 54.4006C50.6951 54.2351 52.533 52.9105 53.5355 51.0893C54.0367 50.0959 54.2038 49.1024 54.2038 48.109C54.2038 47.9435 54.0367 47.4468 54.0367 47.4468C54.0367 47.4468 53.8696 41.983 56.5429 38.8372C56.71 38.6716 56.8771 38.5061 57.0442 38.3405C57.2113 38.1749 57.3784 38.0094 57.3784 38.0094C57.3784 38.0094 57.3783 38.0094 57.5454 38.0094C58.2138 37.6782 58.8821 37.6782 58.8821 37.6782C62.3908 37.5127 65.3983 34.5324 65.5653 30.7243Z" fill="#1887C9"/>
<path d="M39.5763 75.9251C59.6926 75.8837 75.9658 59.5421 75.9237 39.4251C75.8815 19.3081 59.5399 3.03359 39.4237 3.07497C19.3074 3.11636 3.03416 19.458 3.07631 39.575C3.11845 59.692 19.4601 75.9665 39.5763 75.9251Z" stroke="#1887C9" stroke-width="5" stroke-miterlimit="10"/>
</svg>
